<mxfile host="app.diagrams.net" modified="2024-04-09T23:09:51.736Z" agent="Mozilla/5.0 (X11; Linux x86_64) AppleWebKit/537.36 (KHTML, like Gecko) Chrome/123.0.0.0 Safari/537.36" etag="ja3_6UU0kLaK8yv7BbSX" version="24.2.1" type="github">
  <diagram id="C5RBs43oDa-KdzZeNtuy" name="Page-1">
    <mxGraphModel dx="114" dy="1716" grid="1" gridSize="10" guides="1" tooltips="1" connect="1" arrows="1" fold="1" page="1" pageScale="1" pageWidth="827" pageHeight="1169" math="0" shadow="0">
      <root>
        <mxCell id="WIyWlLk6GJQsqaUBKTNV-0" />
        <mxCell id="WIyWlLk6GJQsqaUBKTNV-1" parent="WIyWlLk6GJQsqaUBKTNV-0" />
        <mxCell id="tF3p7hL4zono1IoMEHjC-0" style="edgeStyle=orthogonalEdgeStyle;rounded=0;orthogonalLoop=1;jettySize=auto;html=1;exitX=0.5;exitY=0;exitDx=0;exitDy=0;entryX=0;entryY=1;entryDx=0;entryDy=0;strokeWidth=4;" edge="1" parent="WIyWlLk6GJQsqaUBKTNV-1" target="tF3p7hL4zono1IoMEHjC-37">
          <mxGeometry relative="1" as="geometry">
            <mxPoint x="1225" y="396" as="sourcePoint" />
          </mxGeometry>
        </mxCell>
        <mxCell id="tF3p7hL4zono1IoMEHjC-6" style="edgeStyle=orthogonalEdgeStyle;rounded=0;orthogonalLoop=1;jettySize=auto;html=1;exitX=0.459;exitY=0.011;exitDx=0;exitDy=0;entryX=0;entryY=0.5;entryDx=0;entryDy=0;strokeWidth=4;exitPerimeter=0;" edge="1" parent="WIyWlLk6GJQsqaUBKTNV-1" source="tF3p7hL4zono1IoMEHjC-59" target="tF3p7hL4zono1IoMEHjC-41">
          <mxGeometry relative="1" as="geometry">
            <mxPoint x="1122" y="241" as="targetPoint" />
            <Array as="points" />
          </mxGeometry>
        </mxCell>
        <mxCell id="tF3p7hL4zono1IoMEHjC-7" value="" style="rounded=1;whiteSpace=wrap;html=1;fontSize=12;glass=0;strokeWidth=3;shadow=0;rotation=90;fillColor=#d5e8d4;strokeColor=#000000;" vertex="1" parent="WIyWlLk6GJQsqaUBKTNV-1">
          <mxGeometry x="1049" y="212" width="140" height="40" as="geometry" />
        </mxCell>
        <mxCell id="tF3p7hL4zono1IoMEHjC-8" value="" style="ellipse;whiteSpace=wrap;html=1;aspect=fixed;strokeWidth=2;fillColor=#67AB9F;strokeColor=#000000;" vertex="1" parent="WIyWlLk6GJQsqaUBKTNV-1">
          <mxGeometry x="1112" y="175" width="20" height="20" as="geometry" />
        </mxCell>
        <mxCell id="tF3p7hL4zono1IoMEHjC-9" value="" style="ellipse;whiteSpace=wrap;html=1;aspect=fixed;strokeWidth=2;fillColor=#67AB9F;strokeColor=#000000;" vertex="1" parent="WIyWlLk6GJQsqaUBKTNV-1">
          <mxGeometry x="1112" y="205" width="20" height="20" as="geometry" />
        </mxCell>
        <mxCell id="tF3p7hL4zono1IoMEHjC-10" value="" style="ellipse;whiteSpace=wrap;html=1;aspect=fixed;strokeWidth=2;fillColor=#67AB9F;strokeColor=#000000;" vertex="1" parent="WIyWlLk6GJQsqaUBKTNV-1">
          <mxGeometry x="1112" y="235" width="20" height="20" as="geometry" />
        </mxCell>
        <mxCell id="tF3p7hL4zono1IoMEHjC-11" value="" style="ellipse;whiteSpace=wrap;html=1;aspect=fixed;strokeWidth=2;fillColor=#67AB9F;strokeColor=#000000;" vertex="1" parent="WIyWlLk6GJQsqaUBKTNV-1">
          <mxGeometry x="1112" y="265" width="20" height="20" as="geometry" />
        </mxCell>
        <mxCell id="tF3p7hL4zono1IoMEHjC-12" style="edgeStyle=orthogonalEdgeStyle;rounded=0;orthogonalLoop=1;jettySize=auto;html=1;exitX=0;exitY=0;exitDx=0;exitDy=0;entryX=0.5;entryY=1;entryDx=0;entryDy=0;strokeWidth=4;" edge="1" parent="WIyWlLk6GJQsqaUBKTNV-1" source="tF3p7hL4zono1IoMEHjC-33">
          <mxGeometry relative="1" as="geometry">
            <mxPoint x="1225" y="459" as="targetPoint" />
          </mxGeometry>
        </mxCell>
        <mxCell id="tF3p7hL4zono1IoMEHjC-13" value="x&lt;sup&gt;(t+2)&lt;/sup&gt;" style="text;html=1;align=center;verticalAlign=middle;whiteSpace=wrap;rounded=0;fontSize=23;strokeWidth=4;" vertex="1" parent="WIyWlLk6GJQsqaUBKTNV-1">
          <mxGeometry x="1129" y="504" width="60" height="30" as="geometry" />
        </mxCell>
        <mxCell id="tF3p7hL4zono1IoMEHjC-14" value="y&lt;sup&gt;(t+2)&lt;/sup&gt;" style="text;html=1;align=center;verticalAlign=middle;whiteSpace=wrap;rounded=0;fontSize=23;strokeWidth=4;" vertex="1" parent="WIyWlLk6GJQsqaUBKTNV-1">
          <mxGeometry x="1311" y="-40" width="60" height="30" as="geometry" />
        </mxCell>
        <mxCell id="tF3p7hL4zono1IoMEHjC-15" value="W&lt;sub&gt;x&lt;/sub&gt;" style="text;html=1;align=center;verticalAlign=middle;whiteSpace=wrap;rounded=0;fontSize=28;fontStyle=2" vertex="1" parent="WIyWlLk6GJQsqaUBKTNV-1">
          <mxGeometry x="1090" y="401" width="60" height="30" as="geometry" />
        </mxCell>
        <mxCell id="tF3p7hL4zono1IoMEHjC-16" style="edgeStyle=orthogonalEdgeStyle;rounded=0;orthogonalLoop=1;jettySize=auto;html=1;entryX=0;entryY=1;entryDx=0;entryDy=0;strokeWidth=4;" edge="1" parent="WIyWlLk6GJQsqaUBKTNV-1" source="tF3p7hL4zono1IoMEHjC-17" target="tF3p7hL4zono1IoMEHjC-33">
          <mxGeometry relative="1" as="geometry" />
        </mxCell>
        <mxCell id="tF3p7hL4zono1IoMEHjC-17" value="" style="rounded=1;whiteSpace=wrap;html=1;fontSize=12;glass=0;strokeWidth=3;shadow=0;fillColor=#FFE599;strokeColor=#000000;" vertex="1" parent="WIyWlLk6GJQsqaUBKTNV-1">
          <mxGeometry x="1160" y="580" width="130" height="40" as="geometry" />
        </mxCell>
        <mxCell id="tF3p7hL4zono1IoMEHjC-18" value="" style="ellipse;whiteSpace=wrap;html=1;aspect=fixed;strokeWidth=2;fillColor=#CCCC00;strokeColor=#000000;" vertex="1" parent="WIyWlLk6GJQsqaUBKTNV-1">
          <mxGeometry x="1170" y="590" width="20" height="20" as="geometry" />
        </mxCell>
        <mxCell id="tF3p7hL4zono1IoMEHjC-19" value="" style="ellipse;whiteSpace=wrap;html=1;aspect=fixed;strokeWidth=2;fillColor=#CCCC00;strokeColor=#000000;" vertex="1" parent="WIyWlLk6GJQsqaUBKTNV-1">
          <mxGeometry x="1200" y="590" width="20" height="20" as="geometry" />
        </mxCell>
        <mxCell id="tF3p7hL4zono1IoMEHjC-20" value="" style="ellipse;whiteSpace=wrap;html=1;aspect=fixed;strokeWidth=2;fillColor=#CCCC00;strokeColor=#000000;" vertex="1" parent="WIyWlLk6GJQsqaUBKTNV-1">
          <mxGeometry x="1230" y="590" width="20" height="20" as="geometry" />
        </mxCell>
        <mxCell id="tF3p7hL4zono1IoMEHjC-21" value="" style="ellipse;whiteSpace=wrap;html=1;aspect=fixed;strokeWidth=2;fillColor=#CCCC00;strokeColor=#000000;" vertex="1" parent="WIyWlLk6GJQsqaUBKTNV-1">
          <mxGeometry x="1260" y="590" width="20" height="20" as="geometry" />
        </mxCell>
        <mxCell id="tF3p7hL4zono1IoMEHjC-22" value="W&lt;sub&gt;e&lt;/sub&gt;" style="text;html=1;align=center;verticalAlign=middle;whiteSpace=wrap;rounded=0;fontSize=28;fontStyle=2" vertex="1" parent="WIyWlLk6GJQsqaUBKTNV-1">
          <mxGeometry x="1100" y="585" width="60" height="30" as="geometry" />
        </mxCell>
        <mxCell id="tF3p7hL4zono1IoMEHjC-23" style="edgeStyle=orthogonalEdgeStyle;rounded=0;orthogonalLoop=1;jettySize=auto;html=1;entryX=0.5;entryY=1;entryDx=0;entryDy=0;strokeWidth=4;" edge="1" parent="WIyWlLk6GJQsqaUBKTNV-1" source="tF3p7hL4zono1IoMEHjC-24" target="tF3p7hL4zono1IoMEHjC-17">
          <mxGeometry relative="1" as="geometry" />
        </mxCell>
        <mxCell id="tF3p7hL4zono1IoMEHjC-24" value="palavra&lt;sup&gt;(t+2)&lt;/sup&gt;" style="text;html=1;align=center;verticalAlign=middle;whiteSpace=wrap;rounded=0;fontSize=24;" vertex="1" parent="WIyWlLk6GJQsqaUBKTNV-1">
          <mxGeometry x="1195" y="670" width="60" height="30" as="geometry" />
        </mxCell>
        <mxCell id="tF3p7hL4zono1IoMEHjC-25" style="edgeStyle=orthogonalEdgeStyle;rounded=0;orthogonalLoop=1;jettySize=auto;html=1;strokeWidth=4;entryX=0.5;entryY=1;entryDx=0;entryDy=0;" edge="1" parent="WIyWlLk6GJQsqaUBKTNV-1" target="tF3p7hL4zono1IoMEHjC-48">
          <mxGeometry relative="1" as="geometry">
            <mxPoint x="1341" y="70" as="targetPoint" />
            <mxPoint x="1341" y="125" as="sourcePoint" />
          </mxGeometry>
        </mxCell>
        <mxCell id="tF3p7hL4zono1IoMEHjC-26" value="" style="rounded=1;whiteSpace=wrap;html=1;fontSize=12;glass=0;strokeWidth=3;shadow=0;fillColor=#99CCFF;strokeColor=#000000;" vertex="1" parent="WIyWlLk6GJQsqaUBKTNV-1">
          <mxGeometry x="1275" y="125" width="130" height="40" as="geometry" />
        </mxCell>
        <mxCell id="tF3p7hL4zono1IoMEHjC-27" value="" style="ellipse;whiteSpace=wrap;html=1;aspect=fixed;strokeWidth=2;fillColor=#000066;strokeColor=#000000;" vertex="1" parent="WIyWlLk6GJQsqaUBKTNV-1">
          <mxGeometry x="1286" y="135" width="20" height="20" as="geometry" />
        </mxCell>
        <mxCell id="tF3p7hL4zono1IoMEHjC-28" value="" style="ellipse;whiteSpace=wrap;html=1;aspect=fixed;strokeWidth=2;fillColor=#000066;strokeColor=#000000;" vertex="1" parent="WIyWlLk6GJQsqaUBKTNV-1">
          <mxGeometry x="1316" y="135" width="20" height="20" as="geometry" />
        </mxCell>
        <mxCell id="tF3p7hL4zono1IoMEHjC-29" value="" style="ellipse;whiteSpace=wrap;html=1;aspect=fixed;strokeWidth=2;fillColor=#000066;strokeColor=#000000;" vertex="1" parent="WIyWlLk6GJQsqaUBKTNV-1">
          <mxGeometry x="1346" y="135" width="20" height="20" as="geometry" />
        </mxCell>
        <mxCell id="tF3p7hL4zono1IoMEHjC-30" value="W&lt;sub&gt;y&lt;/sub&gt;" style="text;html=1;align=center;verticalAlign=middle;whiteSpace=wrap;rounded=0;fontSize=28;fontStyle=2" vertex="1" parent="WIyWlLk6GJQsqaUBKTNV-1">
          <mxGeometry x="1215" y="125" width="60" height="30" as="geometry" />
        </mxCell>
        <mxCell id="tF3p7hL4zono1IoMEHjC-31" value="" style="rounded=0;whiteSpace=wrap;html=1;strokeWidth=3;fillColor=#fff2cc;strokeColor=#d6b656;" vertex="1" parent="WIyWlLk6GJQsqaUBKTNV-1">
          <mxGeometry x="1185" y="511" width="20" height="20" as="geometry" />
        </mxCell>
        <mxCell id="tF3p7hL4zono1IoMEHjC-32" value="" style="rounded=0;whiteSpace=wrap;html=1;strokeWidth=3;fillColor=#fff2cc;strokeColor=#d6b656;" vertex="1" parent="WIyWlLk6GJQsqaUBKTNV-1">
          <mxGeometry x="1205" y="511" width="20" height="20" as="geometry" />
        </mxCell>
        <mxCell id="tF3p7hL4zono1IoMEHjC-33" value="" style="rounded=0;whiteSpace=wrap;html=1;strokeWidth=3;fillColor=#fff2cc;strokeColor=#d6b656;" vertex="1" parent="WIyWlLk6GJQsqaUBKTNV-1">
          <mxGeometry x="1225" y="511" width="20" height="20" as="geometry" />
        </mxCell>
        <mxCell id="tF3p7hL4zono1IoMEHjC-34" value="" style="rounded=0;whiteSpace=wrap;html=1;strokeWidth=3;fillColor=#fff2cc;strokeColor=#d6b656;" vertex="1" parent="WIyWlLk6GJQsqaUBKTNV-1">
          <mxGeometry x="1245" y="511" width="20" height="20" as="geometry" />
        </mxCell>
        <mxCell id="tF3p7hL4zono1IoMEHjC-35" value="" style="rounded=0;whiteSpace=wrap;html=1;strokeWidth=3;fillColor=#e1d5e7;strokeColor=#9673a6;" vertex="1" parent="WIyWlLk6GJQsqaUBKTNV-1">
          <mxGeometry x="1185" y="324" width="20" height="20" as="geometry" />
        </mxCell>
        <mxCell id="tF3p7hL4zono1IoMEHjC-36" value="" style="rounded=0;whiteSpace=wrap;html=1;strokeWidth=3;fillColor=#e1d5e7;strokeColor=#9673a6;" vertex="1" parent="WIyWlLk6GJQsqaUBKTNV-1">
          <mxGeometry x="1205" y="324" width="20" height="20" as="geometry" />
        </mxCell>
        <mxCell id="tF3p7hL4zono1IoMEHjC-37" value="" style="rounded=0;whiteSpace=wrap;html=1;strokeWidth=3;fillColor=#e1d5e7;strokeColor=#9673a6;" vertex="1" parent="WIyWlLk6GJQsqaUBKTNV-1">
          <mxGeometry x="1225" y="324" width="20" height="20" as="geometry" />
        </mxCell>
        <mxCell id="tF3p7hL4zono1IoMEHjC-38" value="" style="rounded=0;whiteSpace=wrap;html=1;strokeWidth=3;fillColor=#e1d5e7;strokeColor=#9673a6;" vertex="1" parent="WIyWlLk6GJQsqaUBKTNV-1">
          <mxGeometry x="1245" y="324" width="20" height="20" as="geometry" />
        </mxCell>
        <mxCell id="tF3p7hL4zono1IoMEHjC-39" value="" style="ellipse;whiteSpace=wrap;html=1;aspect=fixed;strokeWidth=2;fillColor=#000066;strokeColor=#000000;" vertex="1" parent="WIyWlLk6GJQsqaUBKTNV-1">
          <mxGeometry x="1376" y="135" width="20" height="20" as="geometry" />
        </mxCell>
        <mxCell id="tF3p7hL4zono1IoMEHjC-40" style="edgeStyle=orthogonalEdgeStyle;rounded=0;orthogonalLoop=1;jettySize=auto;html=1;exitX=1;exitY=0.5;exitDx=0;exitDy=0;entryX=0;entryY=0.5;entryDx=0;entryDy=0;strokeWidth=4;" edge="1" parent="WIyWlLk6GJQsqaUBKTNV-1" source="tF3p7hL4zono1IoMEHjC-41" target="tF3p7hL4zono1IoMEHjC-44">
          <mxGeometry relative="1" as="geometry" />
        </mxCell>
        <mxCell id="tF3p7hL4zono1IoMEHjC-41" value="+" style="ellipse;whiteSpace=wrap;html=1;aspect=fixed;fontSize=32;strokeWidth=4;" vertex="1" parent="WIyWlLk6GJQsqaUBKTNV-1">
          <mxGeometry x="1200" y="216" width="50" height="50" as="geometry" />
        </mxCell>
        <mxCell id="tF3p7hL4zono1IoMEHjC-42" style="edgeStyle=orthogonalEdgeStyle;rounded=0;orthogonalLoop=1;jettySize=auto;html=1;exitX=1;exitY=0;exitDx=0;exitDy=0;entryX=0.5;entryY=1;entryDx=0;entryDy=0;strokeWidth=4;" edge="1" parent="WIyWlLk6GJQsqaUBKTNV-1" source="tF3p7hL4zono1IoMEHjC-36" target="tF3p7hL4zono1IoMEHjC-41">
          <mxGeometry relative="1" as="geometry" />
        </mxCell>
        <mxCell id="tF3p7hL4zono1IoMEHjC-43" style="edgeStyle=orthogonalEdgeStyle;rounded=0;orthogonalLoop=1;jettySize=auto;html=1;entryX=0.5;entryY=1;entryDx=0;entryDy=0;strokeWidth=4;" edge="1" parent="WIyWlLk6GJQsqaUBKTNV-1" source="tF3p7hL4zono1IoMEHjC-44" target="tF3p7hL4zono1IoMEHjC-26">
          <mxGeometry relative="1" as="geometry" />
        </mxCell>
        <mxCell id="tF3p7hL4zono1IoMEHjC-44" value="" style="ellipse;whiteSpace=wrap;html=1;aspect=fixed;fontSize=32;strokeWidth=4;" vertex="1" parent="WIyWlLk6GJQsqaUBKTNV-1">
          <mxGeometry x="1315" y="215.5" width="50" height="50" as="geometry" />
        </mxCell>
        <mxCell id="tF3p7hL4zono1IoMEHjC-45" value="" style="endArrow=classic;html=1;rounded=0;exitX=1;exitY=0;exitDx=0;exitDy=0;strokeWidth=4;entryX=0;entryY=0.5;entryDx=0;entryDy=0;" edge="1" parent="WIyWlLk6GJQsqaUBKTNV-1" target="tF3p7hL4zono1IoMEHjC-46">
          <mxGeometry width="50" height="50" relative="1" as="geometry">
            <mxPoint x="1367" y="243" as="sourcePoint" />
            <mxPoint x="1446" y="243" as="targetPoint" />
          </mxGeometry>
        </mxCell>
        <mxCell id="tF3p7hL4zono1IoMEHjC-46" value="h&lt;sup&gt;(t+2)&lt;/sup&gt;" style="text;html=1;align=center;verticalAlign=middle;whiteSpace=wrap;rounded=0;fontSize=23;strokeWidth=4;" vertex="1" parent="WIyWlLk6GJQsqaUBKTNV-1">
          <mxGeometry x="1439" y="227" width="60" height="30" as="geometry" />
        </mxCell>
        <mxCell id="tF3p7hL4zono1IoMEHjC-47" style="edgeStyle=orthogonalEdgeStyle;rounded=0;orthogonalLoop=1;jettySize=auto;html=1;entryX=0.5;entryY=1;entryDx=0;entryDy=0;fontSize=13;strokeWidth=4;" edge="1" parent="WIyWlLk6GJQsqaUBKTNV-1" source="tF3p7hL4zono1IoMEHjC-48" target="tF3p7hL4zono1IoMEHjC-14">
          <mxGeometry relative="1" as="geometry" />
        </mxCell>
        <mxCell id="tF3p7hL4zono1IoMEHjC-48" value="softmax" style="shape=process;whiteSpace=wrap;html=1;backgroundOutline=1;fontSize=24;strokeWidth=2;fillColor=#e51400;strokeColor=#B20000;fontColor=#ffffff;" vertex="1" parent="WIyWlLk6GJQsqaUBKTNV-1">
          <mxGeometry x="1281" y="31" width="120" height="29" as="geometry" />
        </mxCell>
        <mxCell id="tF3p7hL4zono1IoMEHjC-49" value="h&lt;sup&gt;(t-1)&lt;/sup&gt;" style="text;html=1;align=center;verticalAlign=middle;whiteSpace=wrap;rounded=0;fontSize=23;strokeWidth=4;" vertex="1" parent="WIyWlLk6GJQsqaUBKTNV-1">
          <mxGeometry x="988" y="285" width="60" height="30" as="geometry" />
        </mxCell>
        <mxCell id="tF3p7hL4zono1IoMEHjC-50" value="" style="rounded=0;whiteSpace=wrap;html=1;strokeWidth=3;fillColor=#eeeeee;strokeColor=#36393d;" vertex="1" parent="WIyWlLk6GJQsqaUBKTNV-1">
          <mxGeometry x="1005" y="261" width="20" height="20" as="geometry" />
        </mxCell>
        <mxCell id="tF3p7hL4zono1IoMEHjC-51" value="" style="rounded=0;whiteSpace=wrap;html=1;strokeWidth=3;fillColor=#eeeeee;strokeColor=#36393d;" vertex="1" parent="WIyWlLk6GJQsqaUBKTNV-1">
          <mxGeometry x="1005" y="241" width="20" height="20" as="geometry" />
        </mxCell>
        <mxCell id="tF3p7hL4zono1IoMEHjC-52" value="" style="rounded=0;whiteSpace=wrap;html=1;strokeWidth=3;fillColor=#eeeeee;strokeColor=#36393d;" vertex="1" parent="WIyWlLk6GJQsqaUBKTNV-1">
          <mxGeometry x="1005" y="221" width="20" height="20" as="geometry" />
        </mxCell>
        <mxCell id="tF3p7hL4zono1IoMEHjC-53" value="" style="rounded=0;whiteSpace=wrap;html=1;strokeWidth=3;fillColor=#eeeeee;strokeColor=#36393d;" vertex="1" parent="WIyWlLk6GJQsqaUBKTNV-1">
          <mxGeometry x="1005" y="202" width="20" height="20" as="geometry" />
        </mxCell>
        <mxCell id="tF3p7hL4zono1IoMEHjC-54" value="" style="rounded=1;whiteSpace=wrap;html=1;fontSize=12;glass=0;strokeWidth=3;shadow=0;rotation=90;fillColor=#d5e8d4;strokeColor=#000000;" vertex="1" parent="WIyWlLk6GJQsqaUBKTNV-1">
          <mxGeometry x="1041" y="218.5" width="140" height="40" as="geometry" />
        </mxCell>
        <mxCell id="tF3p7hL4zono1IoMEHjC-55" value="" style="ellipse;whiteSpace=wrap;html=1;aspect=fixed;strokeWidth=2;fillColor=#67AB9F;strokeColor=#000000;" vertex="1" parent="WIyWlLk6GJQsqaUBKTNV-1">
          <mxGeometry x="1101" y="183.5" width="20" height="20" as="geometry" />
        </mxCell>
        <mxCell id="tF3p7hL4zono1IoMEHjC-56" value="" style="ellipse;whiteSpace=wrap;html=1;aspect=fixed;strokeWidth=2;fillColor=#67AB9F;strokeColor=#000000;" vertex="1" parent="WIyWlLk6GJQsqaUBKTNV-1">
          <mxGeometry x="1101" y="213.5" width="20" height="20" as="geometry" />
        </mxCell>
        <mxCell id="tF3p7hL4zono1IoMEHjC-57" value="" style="ellipse;whiteSpace=wrap;html=1;aspect=fixed;strokeWidth=2;fillColor=#67AB9F;strokeColor=#000000;" vertex="1" parent="WIyWlLk6GJQsqaUBKTNV-1">
          <mxGeometry x="1101" y="243.5" width="20" height="20" as="geometry" />
        </mxCell>
        <mxCell id="tF3p7hL4zono1IoMEHjC-58" value="" style="ellipse;whiteSpace=wrap;html=1;aspect=fixed;strokeWidth=2;fillColor=#67AB9F;strokeColor=#000000;" vertex="1" parent="WIyWlLk6GJQsqaUBKTNV-1">
          <mxGeometry x="1101" y="273.5" width="20" height="20" as="geometry" />
        </mxCell>
        <mxCell id="tF3p7hL4zono1IoMEHjC-59" value="" style="rounded=1;whiteSpace=wrap;html=1;fontSize=12;glass=0;strokeWidth=3;shadow=0;rotation=90;fillColor=#d5e8d4;strokeColor=#000000;" vertex="1" parent="WIyWlLk6GJQsqaUBKTNV-1">
          <mxGeometry x="1033" y="227" width="140" height="40" as="geometry" />
        </mxCell>
        <mxCell id="tF3p7hL4zono1IoMEHjC-60" value="" style="ellipse;whiteSpace=wrap;html=1;aspect=fixed;strokeWidth=2;fillColor=#67AB9F;strokeColor=#000000;" vertex="1" parent="WIyWlLk6GJQsqaUBKTNV-1">
          <mxGeometry x="1093" y="192" width="20" height="20" as="geometry" />
        </mxCell>
        <mxCell id="tF3p7hL4zono1IoMEHjC-61" value="" style="ellipse;whiteSpace=wrap;html=1;aspect=fixed;strokeWidth=2;fillColor=#67AB9F;strokeColor=#000000;" vertex="1" parent="WIyWlLk6GJQsqaUBKTNV-1">
          <mxGeometry x="1093" y="222" width="20" height="20" as="geometry" />
        </mxCell>
        <mxCell id="tF3p7hL4zono1IoMEHjC-62" value="" style="ellipse;whiteSpace=wrap;html=1;aspect=fixed;strokeWidth=2;fillColor=#67AB9F;strokeColor=#000000;" vertex="1" parent="WIyWlLk6GJQsqaUBKTNV-1">
          <mxGeometry x="1093" y="252" width="20" height="20" as="geometry" />
        </mxCell>
        <mxCell id="tF3p7hL4zono1IoMEHjC-63" value="" style="ellipse;whiteSpace=wrap;html=1;aspect=fixed;strokeWidth=2;fillColor=#67AB9F;strokeColor=#000000;" vertex="1" parent="WIyWlLk6GJQsqaUBKTNV-1">
          <mxGeometry x="1093" y="282" width="20" height="20" as="geometry" />
        </mxCell>
        <mxCell id="tF3p7hL4zono1IoMEHjC-64" value="" style="rounded=1;whiteSpace=wrap;html=1;fontSize=12;glass=0;strokeWidth=3;shadow=0;rotation=90;fillColor=#d5e8d4;strokeColor=#000000;" vertex="1" parent="WIyWlLk6GJQsqaUBKTNV-1">
          <mxGeometry x="1024" y="236.5" width="140" height="40" as="geometry" />
        </mxCell>
        <mxCell id="tF3p7hL4zono1IoMEHjC-65" value="" style="ellipse;whiteSpace=wrap;html=1;aspect=fixed;strokeWidth=2;fillColor=#67AB9F;strokeColor=#000000;" vertex="1" parent="WIyWlLk6GJQsqaUBKTNV-1">
          <mxGeometry x="1084" y="201.5" width="20" height="20" as="geometry" />
        </mxCell>
        <mxCell id="tF3p7hL4zono1IoMEHjC-66" value="" style="ellipse;whiteSpace=wrap;html=1;aspect=fixed;strokeWidth=2;fillColor=#67AB9F;strokeColor=#000000;" vertex="1" parent="WIyWlLk6GJQsqaUBKTNV-1">
          <mxGeometry x="1084" y="231.5" width="20" height="20" as="geometry" />
        </mxCell>
        <mxCell id="tF3p7hL4zono1IoMEHjC-67" value="" style="ellipse;whiteSpace=wrap;html=1;aspect=fixed;strokeWidth=2;fillColor=#67AB9F;strokeColor=#000000;" vertex="1" parent="WIyWlLk6GJQsqaUBKTNV-1">
          <mxGeometry x="1084" y="261.5" width="20" height="20" as="geometry" />
        </mxCell>
        <mxCell id="tF3p7hL4zono1IoMEHjC-68" value="" style="ellipse;whiteSpace=wrap;html=1;aspect=fixed;strokeWidth=2;fillColor=#67AB9F;strokeColor=#000000;" vertex="1" parent="WIyWlLk6GJQsqaUBKTNV-1">
          <mxGeometry x="1084" y="291.5" width="20" height="20" as="geometry" />
        </mxCell>
        <mxCell id="tF3p7hL4zono1IoMEHjC-69" style="edgeStyle=orthogonalEdgeStyle;rounded=0;orthogonalLoop=1;jettySize=auto;html=1;exitX=1;exitY=0;exitDx=0;exitDy=0;entryX=0.47;entryY=0.941;entryDx=0;entryDy=0;entryPerimeter=0;strokeWidth=4;" edge="1" parent="WIyWlLk6GJQsqaUBKTNV-1" source="tF3p7hL4zono1IoMEHjC-51">
          <mxGeometry relative="1" as="geometry">
            <mxPoint x="1076.3600000000001" y="241.29999999999995" as="targetPoint" />
            <Array as="points">
              <mxPoint x="1050" y="241" />
            </Array>
          </mxGeometry>
        </mxCell>
        <mxCell id="tF3p7hL4zono1IoMEHjC-70" value="" style="rounded=1;whiteSpace=wrap;html=1;fontSize=12;glass=0;strokeWidth=3;shadow=0;fillColor=#e1d5e7;strokeColor=#000000;" vertex="1" parent="WIyWlLk6GJQsqaUBKTNV-1">
          <mxGeometry x="1151.5" y="397" width="130" height="40" as="geometry" />
        </mxCell>
        <mxCell id="tF3p7hL4zono1IoMEHjC-71" value="" style="ellipse;whiteSpace=wrap;html=1;aspect=fixed;strokeWidth=2;fillColor=#F19C99;strokeColor=#000000;" vertex="1" parent="WIyWlLk6GJQsqaUBKTNV-1">
          <mxGeometry x="1161.5" y="407" width="20" height="20" as="geometry" />
        </mxCell>
        <mxCell id="tF3p7hL4zono1IoMEHjC-72" value="" style="ellipse;whiteSpace=wrap;html=1;aspect=fixed;strokeWidth=2;fillColor=#F19C99;strokeColor=#000000;" vertex="1" parent="WIyWlLk6GJQsqaUBKTNV-1">
          <mxGeometry x="1191.5" y="407" width="20" height="20" as="geometry" />
        </mxCell>
        <mxCell id="tF3p7hL4zono1IoMEHjC-73" value="" style="ellipse;whiteSpace=wrap;html=1;aspect=fixed;strokeWidth=2;fillColor=#F19C99;strokeColor=#000000;" vertex="1" parent="WIyWlLk6GJQsqaUBKTNV-1">
          <mxGeometry x="1221.5" y="407" width="20" height="20" as="geometry" />
        </mxCell>
        <mxCell id="tF3p7hL4zono1IoMEHjC-74" value="" style="ellipse;whiteSpace=wrap;html=1;aspect=fixed;strokeWidth=2;fillColor=#F19C99;strokeColor=#000000;" vertex="1" parent="WIyWlLk6GJQsqaUBKTNV-1">
          <mxGeometry x="1251.5" y="407" width="20" height="20" as="geometry" />
        </mxCell>
        <mxCell id="tF3p7hL4zono1IoMEHjC-75" value="" style="rounded=1;whiteSpace=wrap;html=1;fontSize=12;glass=0;strokeWidth=3;shadow=0;fillColor=#e1d5e7;strokeColor=#000000;" vertex="1" parent="WIyWlLk6GJQsqaUBKTNV-1">
          <mxGeometry x="1158.5" y="403" width="130" height="40" as="geometry" />
        </mxCell>
        <mxCell id="tF3p7hL4zono1IoMEHjC-76" value="" style="ellipse;whiteSpace=wrap;html=1;aspect=fixed;strokeWidth=2;fillColor=#F19C99;strokeColor=#000000;" vertex="1" parent="WIyWlLk6GJQsqaUBKTNV-1">
          <mxGeometry x="1168.5" y="413" width="20" height="20" as="geometry" />
        </mxCell>
        <mxCell id="tF3p7hL4zono1IoMEHjC-77" value="" style="ellipse;whiteSpace=wrap;html=1;aspect=fixed;strokeWidth=2;fillColor=#F19C99;strokeColor=#000000;" vertex="1" parent="WIyWlLk6GJQsqaUBKTNV-1">
          <mxGeometry x="1198.5" y="413" width="20" height="20" as="geometry" />
        </mxCell>
        <mxCell id="tF3p7hL4zono1IoMEHjC-78" value="" style="ellipse;whiteSpace=wrap;html=1;aspect=fixed;strokeWidth=2;fillColor=#F19C99;strokeColor=#000000;" vertex="1" parent="WIyWlLk6GJQsqaUBKTNV-1">
          <mxGeometry x="1228.5" y="413" width="20" height="20" as="geometry" />
        </mxCell>
        <mxCell id="tF3p7hL4zono1IoMEHjC-79" value="" style="ellipse;whiteSpace=wrap;html=1;aspect=fixed;strokeWidth=2;fillColor=#F19C99;strokeColor=#000000;" vertex="1" parent="WIyWlLk6GJQsqaUBKTNV-1">
          <mxGeometry x="1258.5" y="413" width="20" height="20" as="geometry" />
        </mxCell>
        <mxCell id="tF3p7hL4zono1IoMEHjC-80" value="" style="rounded=1;whiteSpace=wrap;html=1;fontSize=12;glass=0;strokeWidth=3;shadow=0;fillColor=#e1d5e7;strokeColor=#000000;" vertex="1" parent="WIyWlLk6GJQsqaUBKTNV-1">
          <mxGeometry x="1166.5" y="411" width="130" height="40" as="geometry" />
        </mxCell>
        <mxCell id="tF3p7hL4zono1IoMEHjC-81" value="" style="ellipse;whiteSpace=wrap;html=1;aspect=fixed;strokeWidth=2;fillColor=#F19C99;strokeColor=#000000;" vertex="1" parent="WIyWlLk6GJQsqaUBKTNV-1">
          <mxGeometry x="1174.5" y="419" width="20" height="20" as="geometry" />
        </mxCell>
        <mxCell id="tF3p7hL4zono1IoMEHjC-82" value="" style="ellipse;whiteSpace=wrap;html=1;aspect=fixed;strokeWidth=2;fillColor=#F19C99;strokeColor=#000000;" vertex="1" parent="WIyWlLk6GJQsqaUBKTNV-1">
          <mxGeometry x="1204.5" y="419" width="20" height="20" as="geometry" />
        </mxCell>
        <mxCell id="tF3p7hL4zono1IoMEHjC-83" value="" style="ellipse;whiteSpace=wrap;html=1;aspect=fixed;strokeWidth=2;fillColor=#F19C99;strokeColor=#000000;" vertex="1" parent="WIyWlLk6GJQsqaUBKTNV-1">
          <mxGeometry x="1234.5" y="419" width="20" height="20" as="geometry" />
        </mxCell>
        <mxCell id="tF3p7hL4zono1IoMEHjC-84" value="" style="ellipse;whiteSpace=wrap;html=1;aspect=fixed;strokeWidth=2;fillColor=#F19C99;strokeColor=#000000;" vertex="1" parent="WIyWlLk6GJQsqaUBKTNV-1">
          <mxGeometry x="1264.5" y="419" width="20" height="20" as="geometry" />
        </mxCell>
        <mxCell id="tF3p7hL4zono1IoMEHjC-85" value="" style="rounded=1;whiteSpace=wrap;html=1;fontSize=12;glass=0;strokeWidth=3;shadow=0;fillColor=#e1d5e7;strokeColor=#000000;" vertex="1" parent="WIyWlLk6GJQsqaUBKTNV-1">
          <mxGeometry x="1174.5" y="419" width="130" height="40" as="geometry" />
        </mxCell>
        <mxCell id="tF3p7hL4zono1IoMEHjC-86" value="" style="ellipse;whiteSpace=wrap;html=1;aspect=fixed;strokeWidth=2;fillColor=#F19C99;strokeColor=#000000;" vertex="1" parent="WIyWlLk6GJQsqaUBKTNV-1">
          <mxGeometry x="1184.5" y="429" width="20" height="20" as="geometry" />
        </mxCell>
        <mxCell id="tF3p7hL4zono1IoMEHjC-87" value="" style="ellipse;whiteSpace=wrap;html=1;aspect=fixed;strokeWidth=2;fillColor=#F19C99;strokeColor=#000000;" vertex="1" parent="WIyWlLk6GJQsqaUBKTNV-1">
          <mxGeometry x="1214.5" y="429" width="20" height="20" as="geometry" />
        </mxCell>
        <mxCell id="tF3p7hL4zono1IoMEHjC-88" value="" style="ellipse;whiteSpace=wrap;html=1;aspect=fixed;strokeWidth=2;fillColor=#F19C99;strokeColor=#000000;" vertex="1" parent="WIyWlLk6GJQsqaUBKTNV-1">
          <mxGeometry x="1244.5" y="429" width="20" height="20" as="geometry" />
        </mxCell>
        <mxCell id="tF3p7hL4zono1IoMEHjC-89" value="" style="ellipse;whiteSpace=wrap;html=1;aspect=fixed;strokeWidth=2;fillColor=#F19C99;strokeColor=#000000;" vertex="1" parent="WIyWlLk6GJQsqaUBKTNV-1">
          <mxGeometry x="1274.5" y="429" width="20" height="20" as="geometry" />
        </mxCell>
      </root>
    </mxGraphModel>
  </diagram>
</mxfile>
